<svg xmlns="http://www.w3.org/2000/svg" viewBox="0 0 289.9 57.37"><path d="M700.25,600.77h10.34l19,55.29H719.2l-4.58-14.61h-18.4l-4.58,14.61H681.29Zm11.45,31.59-6.32-20.06-6.32,20.06Z" transform="translate(-681.29 -599.9)" fill="#0c38cb"/><path d="M736.74,627.23a2.41,2.41,0,0,0,1.58,2.21,21.61,21.61,0,0,0,4,1.46l5.17,1.43a21.81,21.81,0,0,1,5.17,2.13,12,12,0,0,1,4,3.67,10.33,10.33,0,0,1,1.58,6,12,12,0,0,1-1.14,5.34,11.13,11.13,0,0,1-3.2,3.91,14.31,14.31,0,0,1-4.86,2.37,23.11,23.11,0,0,1-6.2.79,24,24,0,0,1-5.73-.64,26.4,26.4,0,0,1-4.58-1.54,19.07,19.07,0,0,1-3.47-2c-1-.71-1.78-1.33-2.41-1.86l5-7.42a17.62,17.62,0,0,0,5.49,3.55,15.8,15.8,0,0,0,5.89,1.19,8.93,8.93,0,0,0,4.07-.83,2.73,2.73,0,0,0,1.61-2.57,2.88,2.88,0,0,0-1.58-2.65,17.8,17.8,0,0,0-4-1.58L738,638.8a23,23,0,0,1-5.17-2.09,12.2,12.2,0,0,1-4-3.52,9.66,9.66,0,0,1-1.58-5.8,10.13,10.13,0,0,1,3.83-8.45q3.82-3,10.55-3a24.41,24.41,0,0,1,5.37.55,28.21,28.21,0,0,1,4.46,1.38,22.59,22.59,0,0,1,3.67,1.9,23.83,23.83,0,0,1,2.92,2.17l-5,7.34a20.56,20.56,0,0,0-6.12-3.63,16.82,16.82,0,0,0-5.41-1,7,7,0,0,0-3.52.72A2.13,2.13,0,0,0,736.74,627.23Z" transform="translate(-681.29 -599.9)" fill="#0c38cb"/><path d="M799.93,600.77v35.62a21.48,21.48,0,0,1-1.62,8.53,18.4,18.4,0,0,1-10.94,10.39,23.62,23.62,0,0,1-8.14,1.38,21.81,21.81,0,0,1-8.17-1.46,18.31,18.31,0,0,1-10.51-10.54,22.59,22.59,0,0,1-1.46-8.3,23.2,23.2,0,0,1,1.46-8.37,19.1,19.1,0,0,1,4.07-6.48,17.84,17.84,0,0,1,6.24-4.14,20.87,20.87,0,0,1,7.9-1.46,17.63,17.63,0,0,1,7.26,1.34,11.34,11.34,0,0,1,4.43,3.16V600.77Zm-31.36,35.54q0,5.54,3,8.61a10.48,10.48,0,0,0,7.94,3.08,10.62,10.62,0,0,0,8-3.08q3-3.07,3-8.61t-3-8.61a10.66,10.66,0,0,0-8-3.08,10.52,10.52,0,0,0-7.94,3.08Q768.58,630.79,768.57,636.31Z" transform="translate(-681.29 -599.9)" fill="#0c38cb"/><path d="M802.61,605.11a5.08,5.08,0,0,1,1.5-3.67,5.25,5.25,0,0,1,7.43,0,5.08,5.08,0,0,1,1.5,3.67,5.15,5.15,0,0,1-1.5,3.8,5.35,5.35,0,0,1-7.43,0A5.15,5.15,0,0,1,802.61,605.11Zm.48,11.46h9.47v39.49h-9.47Z" transform="translate(-681.29 -599.9)" fill="#0c38cb"/><path d="M833.5,615.86a19.43,19.43,0,0,1,8.33,1.62,17.34,17.34,0,0,1,5.65,4.1,15.83,15.83,0,0,1,3.2,5.41,17.55,17.55,0,0,1,1,5.53v23.54h-9.48v-23.3a8.34,8.34,0,0,0-.71-3.63,7.5,7.5,0,0,0-1.89-2.53,7.37,7.37,0,0,0-2.77-1.5,11.69,11.69,0,0,0-6.63,0,7.37,7.37,0,0,0-2.77,1.5,7.5,7.5,0,0,0-1.89,2.53,8.34,8.34,0,0,0-.71,3.63v23.3h-9.48V632.52a17.3,17.3,0,0,1,1-5.53,15.52,15.52,0,0,1,3.2-5.41,17.19,17.19,0,0,1,5.64-4.1A19.44,19.44,0,0,1,833.5,615.86Z" transform="translate(-681.29 -599.9)" fill="#0c38cb"/><path d="M855.73,651.46a5.54,5.54,0,0,1,1.61-4.17,6.42,6.42,0,0,1,8.41,0,5.58,5.58,0,0,1,1.61,4.17,5.67,5.67,0,0,1-1.61,4.24,6.42,6.42,0,0,1-8.41,0A5.63,5.63,0,0,1,855.73,651.46Z" transform="translate(-681.29 -599.9)" fill="#0c38cb"/><path d="M888.58,616.56a19.44,19.44,0,0,1,8.3,1.61,17.19,17.19,0,0,1,5.62,4.09,15.72,15.72,0,0,1,3.18,5.38,17.33,17.33,0,0,1,1,5.5v23.43h-9.43V633.38a8.44,8.44,0,0,0-.71-3.62,7.63,7.63,0,0,0-1.88-2.51,7.55,7.55,0,0,0-2.76-1.5,11.82,11.82,0,0,0-6.6,0,7.51,7.51,0,0,0-2.75,1.5,7.66,7.66,0,0,0-1.89,2.51,8.44,8.44,0,0,0-.7,3.62v23.19H870.5V633.14a17.08,17.08,0,0,1,1-5.5,15.41,15.41,0,0,1,3.18-5.38,17.19,17.19,0,0,1,5.62-4.09A19.39,19.39,0,0,1,888.58,616.56Z" transform="translate(-681.29 -599.9)" fill="#0c38cb"/><path d="M929,648.63q6,0,8.89-4.25h10.29a18,18,0,0,1-6.95,9.44,20.86,20.86,0,0,1-12.15,3.45,23,23,0,0,1-8.33-1.45,17.92,17.92,0,0,1-10.57-10.57,23,23,0,0,1-1.46-8.33,22.71,22.71,0,0,1,1.46-8.3,17.77,17.77,0,0,1,4.13-6.36,18.52,18.52,0,0,1,6.44-4.09,23,23,0,0,1,8.33-1.46,22.71,22.71,0,0,1,8.3,1.46,18.63,18.63,0,0,1,6.4,4.09,17.91,17.91,0,0,1,4.13,6.36,22.71,22.71,0,0,1,1.45,8.3c0,.57,0,1.11,0,1.61s-.06,1-.11,1.53H918.45a10.34,10.34,0,0,0,3.54,6.33A10.71,10.71,0,0,0,929,648.63Zm9.91-17.22a9.59,9.59,0,0,0-3.81-4.48,11.42,11.42,0,0,0-6.1-1.57,11.19,11.19,0,0,0-6.05,1.57,9.62,9.62,0,0,0-3.77,4.48Z" transform="translate(-681.29 -599.9)" fill="#0c38cb"/><path d="M971.19,657.12q-9.74,0-14.73-4.76t-5-13.87V614.64h9.44v23.77c0,3.61.78,6.2,2.36,7.74s4.21,2.32,7.93,2.32Zm-1.33-33.81V632h-15v-8.65Z" transform="translate(-681.29 -599.9)" fill="#0c38cb"/></svg>